<?xml version="1.0" encoding="UTF-8" standalone="no"?>
<!DOCTYPE svg PUBLIC "-//W3C//DTD SVG 1.1//EN"
 "http://www.w3.org/Graphics/SVG/1.1/DTD/svg11.dtd">
<!-- Generated by graphviz version 2.36.0 (20140111.2315)
 -->
<!-- Title: Game Pages: 1 -->
<svg width="639pt" height="962pt"
 viewBox="0.00 0.00 639.00 962.00" xmlns="http://www.w3.org/2000/svg" xmlns:xlink="http://www.w3.org/1999/xlink">
<g id="graph0" class="graph" transform="scale(1 1) rotate(0) translate(4 958)">
<title>Game</title>
<polygon fill="white" stroke="none" points="-4,4 -4,-958 635,-958 635,4 -4,4"/>
<text text-anchor="middle" x="315.5" y="-7.8" font-family="Times,serif" font-size="14.00">Game Sequence</text>
<g id="clust1" class="cluster"><title>cluster_round</title>
<polygon fill="lightgrey" stroke="lightgrey" points="248,-475 248,-622 453,-622 453,-475 248,-475"/>
<text text-anchor="middle" x="350.5" y="-606.8" font-family="Times,serif" font-size="14.00">Round Sequence</text>
</g>
<g id="clust2" class="cluster"><title>cluster_turn</title>
<polygon fill="lightgrey" stroke="lightgrey" points="68,-31 68,-467 256,-467 256,-31 68,-31"/>
<text text-anchor="middle" x="162" y="-451.8" font-family="Times,serif" font-size="14.00">Turn Sequence</text>
</g>
<g id="clust3" class="cluster"><title>cluster_next_round</title>
<polygon fill="grey" stroke="grey" points="8,-475 8,-622 210,-622 210,-475 8,-475"/>
<text text-anchor="middle" x="109" y="-606.8" font-family="Times,serif" font-size="14.00">Next Round?</text>
</g>
<!-- not_empty -->
<g id="node1" class="node"><title>not_empty</title>
<ellipse fill="green" stroke="green" cx="307" cy="-501" rx="51.0191" ry="18"/>
<text text-anchor="middle" x="307" y="-497.3" font-family="Times,serif" font-size="14.00">not_empty</text>
</g>
<!-- supply -->
<g id="node5" class="node"><title>supply</title>
<ellipse fill="white" stroke="white" cx="162" cy="-418" rx="36.096" ry="18"/>
<text text-anchor="middle" x="162" y="-414.3" font-family="Times,serif" font-size="14.00">supply</text>
</g>
<!-- not_empty&#45;&gt;supply -->
<g id="edge15" class="edge"><title>not_empty&#45;&gt;supply</title>
<path fill="none" stroke="black" d="M280.742,-485.332C256.358,-471.71 219.998,-451.399 193.942,-436.844"/>
<polygon fill="black" stroke="black" points="195.63,-433.777 185.192,-431.956 192.216,-439.888 195.63,-433.777"/>
</g>
<!-- empty -->
<g id="node2" class="node"><title>empty</title>
<ellipse fill="red" stroke="red" cx="411" cy="-501" rx="34.1708" ry="18"/>
<text text-anchor="middle" x="411" y="-497.3" font-family="Times,serif" font-size="14.00">empty</text>
</g>
<!-- end -->
<g id="node18" class="node"><title>end</title>
<polygon fill="none" stroke="black" points="430,-437 392,-437 392,-399 430,-399 430,-437"/>
<polyline fill="none" stroke="black" points="404,-437 392,-425 "/>
<polyline fill="none" stroke="black" points="392,-411 404,-399 "/>
<polyline fill="none" stroke="black" points="418,-399 430,-411 "/>
<polyline fill="none" stroke="black" points="430,-425 418,-437 "/>
<text text-anchor="middle" x="411" y="-414.3" font-family="Times,serif" font-size="14.00">end</text>
</g>
<!-- empty&#45;&gt;end -->
<g id="edge16" class="edge"><title>empty&#45;&gt;end</title>
<path fill="none" stroke="black" d="M411,-482.822C411,-472.582 411,-459.325 411,-447.549"/>
<polygon fill="black" stroke="black" points="414.5,-447.279 411,-437.279 407.5,-447.279 414.5,-447.279"/>
</g>
<!-- draw_event -->
<g id="node3" class="node"><title>draw_event</title>
<ellipse fill="lightgrey" stroke="black" cx="351" cy="-573" rx="53.4184" ry="18"/>
<text text-anchor="middle" x="351" y="-569.3" font-family="Times,serif" font-size="14.00">draw_event</text>
</g>
<!-- draw_event&#45;&gt;not_empty -->
<g id="edge1" class="edge"><title>draw_event&#45;&gt;not_empty</title>
<path fill="none" stroke="black" d="M340.349,-555.055C335.16,-546.801 328.812,-536.701 323.052,-527.538"/>
<polygon fill="black" stroke="black" points="325.838,-525.393 317.553,-518.789 319.912,-529.118 325.838,-525.393"/>
</g>
<!-- draw_event&#45;&gt;empty -->
<g id="edge2" class="edge"><title>draw_event&#45;&gt;empty</title>
<path fill="none" stroke="black" d="M365.219,-555.411C372.8,-546.567 382.26,-535.531 390.609,-525.789"/>
<polygon fill="black" stroke="black" points="393.445,-527.858 397.296,-517.988 388.131,-523.303 393.445,-527.858"/>
</g>
<!-- black_market -->
<g id="node4" class="node"><title>black_market</title>
<polygon fill="white" stroke="white" points="162,-291 75.8985,-273 162,-255 248.102,-273 162,-291"/>
<text text-anchor="middle" x="162" y="-269.3" font-family="Times,serif" font-size="14.00">black_market</text>
</g>
<!-- restock -->
<g id="node7" class="node"><title>restock</title>
<ellipse fill="white" stroke="white" cx="158" cy="-201" rx="37.0701" ry="18"/>
<text text-anchor="middle" x="158" y="-197.3" font-family="Times,serif" font-size="14.00">restock</text>
</g>
<!-- black_market&#45;&gt;restock -->
<g id="edge5" class="edge"><title>black_market&#45;&gt;restock</title>
<path fill="none" stroke="black" d="M161.032,-255.055C160.591,-247.346 160.059,-238.027 159.564,-229.364"/>
<polygon fill="black" stroke="black" points="163.052,-229.059 158.987,-219.275 156.063,-229.459 163.052,-229.059"/>
</g>
<!-- market -->
<g id="node6" class="node"><title>market</title>
<ellipse fill="white" stroke="white" cx="162" cy="-345" rx="36.096" ry="18"/>
<text text-anchor="middle" x="162" y="-341.3" font-family="Times,serif" font-size="14.00">market</text>
</g>
<!-- supply&#45;&gt;market -->
<g id="edge3" class="edge"><title>supply&#45;&gt;market</title>
<path fill="none" stroke="black" d="M162,-399.813C162,-391.789 162,-382.047 162,-373.069"/>
<polygon fill="black" stroke="black" points="165.5,-373.029 162,-363.029 158.5,-373.029 165.5,-373.029"/>
</g>
<!-- market&#45;&gt;black_market -->
<g id="edge4" class="edge"><title>market&#45;&gt;black_market</title>
<path fill="none" stroke="black" d="M162,-326.697C162,-318.983 162,-309.712 162,-301.112"/>
<polygon fill="black" stroke="black" points="165.5,-301.104 162,-291.104 158.5,-301.104 165.5,-301.104"/>
</g>
<!-- character_power -->
<g id="node8" class="node"><title>character_power</title>
<ellipse fill="white" stroke="white" cx="154" cy="-129" rx="71.2405" ry="18"/>
<text text-anchor="middle" x="154" y="-125.3" font-family="Times,serif" font-size="14.00">character_power</text>
</g>
<!-- restock&#45;&gt;character_power -->
<g id="edge6" class="edge"><title>restock&#45;&gt;character_power</title>
<path fill="none" stroke="black" d="M157.011,-182.697C156.57,-174.983 156.041,-165.712 155.549,-157.112"/>
<polygon fill="black" stroke="black" points="159.042,-156.888 154.977,-147.104 152.054,-157.288 159.042,-156.888"/>
</g>
<!-- end_turn -->
<g id="node9" class="node"><title>end_turn</title>
<ellipse fill="white" stroke="white" cx="137" cy="-57" rx="44.2946" ry="18"/>
<text text-anchor="middle" x="137" y="-53.3" font-family="Times,serif" font-size="14.00">end_turn</text>
</g>
<!-- character_power&#45;&gt;end_turn -->
<g id="edge7" class="edge"><title>character_power&#45;&gt;end_turn</title>
<path fill="none" stroke="black" d="M149.798,-110.697C147.904,-102.898 145.623,-93.5085 143.516,-84.8292"/>
<polygon fill="black" stroke="black" points="146.915,-83.9959 141.154,-75.1043 140.113,-85.6479 146.915,-83.9959"/>
</g>
<!-- all_players_had_turns -->
<g id="node10" class="node"><title>all_players_had_turns</title>
<ellipse fill="none" stroke="black" cx="109" cy="-573" rx="92.413" ry="18"/>
<text text-anchor="middle" x="109" y="-569.3" font-family="Times,serif" font-size="14.00">all_players_had_turns</text>
</g>
<!-- end_turn&#45;&gt;all_players_had_turns -->
<g id="edge17" class="edge"><title>end_turn&#45;&gt;all_players_had_turns</title>
<path fill="none" stroke="black" d="M113.922,-72.3502C100.484,-81.8048 84.2269,-95.3156 74,-111 51.4921,-145.519 48,-158.791 48,-200 48,-419 48,-419 48,-419 48,-464.24 48.1845,-477.859 67,-519 71.6624,-529.195 78.6897,-539.158 85.6692,-547.643"/>
<polygon fill="black" stroke="black" points="83.0833,-550.004 92.2675,-555.286 88.3818,-545.43 83.0833,-550.004"/>
</g>
<!-- yes -->
<g id="node11" class="node"><title>yes</title>
<ellipse fill="none" stroke="black" cx="175" cy="-501" rx="27" ry="18"/>
<text text-anchor="middle" x="175" y="-497.3" font-family="Times,serif" font-size="14.00">yes</text>
</g>
<!-- all_players_had_turns&#45;&gt;yes -->
<g id="edge8" class="edge"><title>all_players_had_turns&#45;&gt;yes</title>
<path fill="none" stroke="black" d="M124.977,-555.055C133.646,-545.86 144.475,-534.375 153.837,-524.445"/>
<polygon fill="black" stroke="black" points="156.649,-526.565 160.963,-516.888 151.556,-521.763 156.649,-526.565"/>
</g>
<!-- no -->
<g id="node12" class="node"><title>no</title>
<ellipse fill="none" stroke="black" cx="103" cy="-501" rx="27" ry="18"/>
<text text-anchor="middle" x="103" y="-497.3" font-family="Times,serif" font-size="14.00">no</text>
</g>
<!-- all_players_had_turns&#45;&gt;no -->
<g id="edge9" class="edge"><title>all_players_had_turns&#45;&gt;no</title>
<path fill="none" stroke="black" d="M107.517,-554.697C106.856,-546.983 106.061,-537.712 105.324,-529.112"/>
<polygon fill="black" stroke="black" points="108.807,-528.769 104.466,-519.104 101.833,-529.367 108.807,-528.769"/>
</g>
<!-- move_initiative_badge -->
<g id="node19" class="node"><title>move_initiative_badge</title>
<ellipse fill="none" stroke="black" cx="230" cy="-648" rx="96.2874" ry="18"/>
<text text-anchor="middle" x="230" y="-644.3" font-family="Times,serif" font-size="14.00">move_initiative_badge</text>
</g>
<!-- yes&#45;&gt;move_initiative_badge -->
<g id="edge19" class="edge"><title>yes&#45;&gt;move_initiative_badge</title>
<path fill="none" stroke="black" d="M187.361,-517.361C194.941,-527.501 204.262,-541.384 210,-555 218.796,-575.872 223.93,-601.105 226.789,-619.862"/>
<polygon fill="black" stroke="black" points="223.329,-620.395 228.186,-629.811 230.261,-619.421 223.329,-620.395"/>
</g>
<!-- no&#45;&gt;supply -->
<g id="edge18" class="edge"><title>no&#45;&gt;supply</title>
<path fill="none" stroke="black" d="M114.376,-484.382C122.836,-472.767 134.544,-456.694 144.234,-443.391"/>
<polygon fill="black" stroke="black" points="147.197,-445.268 150.255,-435.124 141.539,-441.146 147.197,-445.268"/>
</g>
<!-- start -->
<g id="node13" class="node"><title>start</title>
<polygon fill="none" stroke="black" points="488,-954 451.847,-936 488,-918 524.153,-936 488,-954"/>
<polyline fill="none" stroke="black" points="462.589,-941.348 462.589,-930.652 "/>
<polyline fill="none" stroke="black" points="477.258,-923.348 498.742,-923.348 "/>
<polyline fill="none" stroke="black" points="513.411,-930.652 513.411,-941.348 "/>
<polyline fill="none" stroke="black" points="498.742,-948.652 477.258,-948.652 "/>
<text text-anchor="middle" x="488" y="-932.3" font-family="Times,serif" font-size="14.00">start</text>
</g>
<!-- populate_dragons_nest -->
<g id="node14" class="node"><title>populate_dragons_nest</title>
<ellipse fill="none" stroke="black" cx="488" cy="-864" rx="96.2631" ry="18"/>
<text text-anchor="middle" x="488" y="-860.3" font-family="Times,serif" font-size="14.00">populate_dragons_nest</text>
</g>
<!-- start&#45;&gt;populate_dragons_nest -->
<g id="edge10" class="edge"><title>start&#45;&gt;populate_dragons_nest</title>
<path fill="none" stroke="black" d="M488,-917.697C488,-909.983 488,-900.712 488,-892.112"/>
<polygon fill="black" stroke="black" points="491.5,-892.104 488,-882.104 484.5,-892.104 491.5,-892.104"/>
</g>
<!-- deal_merchant_kings -->
<g id="node15" class="node"><title>deal_merchant_kings</title>
<ellipse fill="none" stroke="black" cx="488" cy="-792" rx="90.0136" ry="18"/>
<text text-anchor="middle" x="488" y="-788.3" font-family="Times,serif" font-size="14.00">deal_merchant_kings</text>
</g>
<!-- populate_dragons_nest&#45;&gt;deal_merchant_kings -->
<g id="edge11" class="edge"><title>populate_dragons_nest&#45;&gt;deal_merchant_kings</title>
<path fill="none" stroke="black" d="M488,-845.697C488,-837.983 488,-828.712 488,-820.112"/>
<polygon fill="black" stroke="black" points="491.5,-820.104 488,-810.104 484.5,-820.104 491.5,-820.104"/>
</g>
<!-- populate_market_place -->
<g id="node16" class="node"><title>populate_market_place</title>
<ellipse fill="none" stroke="black" cx="488" cy="-720" rx="96.2631" ry="18"/>
<text text-anchor="middle" x="488" y="-716.3" font-family="Times,serif" font-size="14.00">populate_market_place</text>
</g>
<!-- deal_merchant_kings&#45;&gt;populate_market_place -->
<g id="edge12" class="edge"><title>deal_merchant_kings&#45;&gt;populate_market_place</title>
<path fill="none" stroke="black" d="M488,-773.697C488,-765.983 488,-756.712 488,-748.112"/>
<polygon fill="black" stroke="black" points="491.5,-748.104 488,-738.104 484.5,-748.104 491.5,-748.104"/>
</g>
<!-- resolve_and_place_initiative_badge -->
<g id="node17" class="node"><title>resolve_and_place_initiative_badge</title>
<ellipse fill="none" stroke="black" cx="488" cy="-648" rx="143.456" ry="18"/>
<text text-anchor="middle" x="488" y="-644.3" font-family="Times,serif" font-size="14.00">resolve_and_place_initiative_badge</text>
</g>
<!-- populate_market_place&#45;&gt;resolve_and_place_initiative_badge -->
<g id="edge13" class="edge"><title>populate_market_place&#45;&gt;resolve_and_place_initiative_badge</title>
<path fill="none" stroke="black" d="M488,-701.697C488,-693.983 488,-684.712 488,-676.112"/>
<polygon fill="black" stroke="black" points="491.5,-676.104 488,-666.104 484.5,-676.104 491.5,-676.104"/>
</g>
<!-- resolve_and_place_initiative_badge&#45;&gt;draw_event -->
<g id="edge14" class="edge"><title>resolve_and_place_initiative_badge&#45;&gt;draw_event</title>
<path fill="none" stroke="black" d="M456.569,-630.252C435.971,-619.276 408.972,-604.89 387.435,-593.414"/>
<polygon fill="black" stroke="black" points="389.045,-590.306 378.573,-588.692 385.753,-596.484 389.045,-590.306"/>
</g>
<!-- move_initiative_badge&#45;&gt;draw_event -->
<g id="edge20" class="edge"><title>move_initiative_badge&#45;&gt;draw_event</title>
<path fill="none" stroke="black" d="M257.155,-630.617C274.96,-619.876 298.368,-605.753 317.351,-594.301"/>
<polygon fill="black" stroke="black" points="319.243,-597.247 325.998,-589.084 315.627,-591.253 319.243,-597.247"/>
</g>
</g>
</svg>
